<svg width="26" height="26" viewBox="0 0 26 26" fill="none" xmlns="http://www.w3.org/2000/svg">
<path d="M13.0001 8.83374C10.7064 8.83374 8.83452 10.7056 8.83452 12.9994C8.83452 15.2931 10.7064 17.165 13.0001 17.165C15.2939 17.165 17.1658 15.2931 17.1658 12.9994C17.1658 10.7056 15.2939 8.83374 13.0001 8.83374ZM25.4939 12.9994C25.4939 11.2744 25.5095 9.56499 25.4126 7.84312C25.3158 5.84312 24.8595 4.06812 23.397 2.60562C21.9314 1.13999 20.1595 0.686867 18.1595 0.589992C16.4345 0.493117 14.7251 0.508742 13.0033 0.508742C11.2783 0.508742 9.5689 0.493117 7.84702 0.589992C5.84702 0.686867 4.07202 1.14312 2.60952 2.60562C1.1439 4.07124 0.690773 5.84312 0.593898 7.84312C0.497023 9.56812 0.512648 11.2775 0.512648 12.9994C0.512648 14.7212 0.497023 16.4337 0.593898 18.1556C0.690773 20.1556 1.14702 21.9306 2.60952 23.3931C4.07515 24.8587 5.84702 25.3119 7.84702 25.4087C9.57202 25.5056 11.2814 25.49 13.0033 25.49C14.7283 25.49 16.4376 25.5056 18.1595 25.4087C20.1595 25.3119 21.9345 24.8556 23.397 23.3931C24.8626 21.9275 25.3158 20.1556 25.4126 18.1556C25.5126 16.4337 25.4939 14.7244 25.4939 12.9994ZM13.0001 19.4087C9.45327 19.4087 6.59077 16.5462 6.59077 12.9994C6.59077 9.45249 9.45327 6.58999 13.0001 6.58999C16.547 6.58999 19.4095 9.45249 19.4095 12.9994C19.4095 16.5462 16.547 19.4087 13.0001 19.4087ZM19.672 7.82437C18.8439 7.82437 18.1751 7.15562 18.1751 6.32749C18.1751 5.49937 18.8439 4.83062 19.672 4.83062C20.5001 4.83062 21.1689 5.49937 21.1689 6.32749C21.1691 6.52413 21.1306 6.71889 21.0555 6.90061C20.9803 7.08233 20.8701 7.24745 20.731 7.38649C20.592 7.52554 20.4269 7.63579 20.2451 7.71093C20.0634 7.78606 19.8687 7.82461 19.672 7.82437Z" fill="#ADB4BD"/>
</svg>
