<svg width="23" height="19" viewBox="0 0 23 19" fill="none" xmlns="http://www.w3.org/2000/svg">
<path d="M21.2306 3.45997C20.7401 3.60011 20.3664 3.57676 20.3664 3.57676L20.3897 3.48332C20.8335 3.13296 21.9781 2.01179 22.1182 1.49792C22.1883 1.26435 22.0949 1.19427 22.0949 1.19427L20.6467 1.80157L19.4321 2.3388C18.5912 1.45121 17.3299 0.890625 15.9051 0.890625C13.3824 0.890625 11.327 2.68916 11.327 4.88478C11.327 5.28186 11.397 6.02931 11.5138 6.40303C11.5138 6.51982 11.5138 6.28624 11.5138 6.40303C9.8788 6.35632 7.79996 5.7023 5.9547 4.74464C2.28755 2.89938 2.05398 1.61471 2.05398 1.61471C1.47004 2.22201 1.18974 4.25413 1.77368 5.84245C2.14741 6.84683 3.43208 7.75778 3.43208 7.75778C3.43208 7.75778 2.84814 7.75778 2.2642 7.57091C1.6569 7.3607 1.44668 7.17383 1.44668 7.17383C1.09631 8.03807 1.79704 9.60303 3.035 10.7242C3.75908 11.3782 5.06712 11.7753 5.06712 11.7753L3.01164 11.822C2.89485 13.8308 7.21602 15.022 7.21602 15.022C5.9547 16.003 4.48317 16.587 2.91821 16.587C2.10069 16.587 1.30653 16.4702 0.559082 16.2366C2.63791 17.9417 5.30069 19.133 8.2204 18.9695C15.9284 18.5724 20.273 11.9388 20.4832 5.42201V5.44537C20.4832 5.44537 20.8335 5.25851 21.6277 4.4877C22.3985 3.7169 22.889 2.80595 22.889 2.80595C22.889 2.80595 21.7211 3.34318 21.2306 3.45997Z" fill="#ADB4BD"/>
</svg>
