<svg width="149" height="45" viewBox="0 0 149 45" fill="none" xmlns="http://www.w3.org/2000/svg">
<g clip-path="url(#clip0)">
<path fill-rule="evenodd" clip-rule="evenodd" d="M143.479 44.1481H5.52055C2.47794 44.1481 0 41.66 0 38.6296V5.51852C0 2.47714 2.47794 0 5.52055 0H143.479C146.519 0 149 2.47714 149 5.51852V38.6296C149 41.66 146.519 44.1481 143.479 44.1481Z" fill="black"/>
<path fill-rule="evenodd" clip-rule="evenodd" d="M143.479 0.883513C146.031 0.883513 148.12 2.96706 148.12 5.51852V38.6296C148.12 41.1811 146.045 43.2646 143.479 43.2646H5.52055C2.9686 43.2646 0.879889 41.1811 0.879889 38.6296V5.51852C0.879889 2.96706 2.95489 0.883513 5.52055 0.883513H143.479ZM143.479 0H5.52055C2.47794 0 0 2.48815 0 5.51852V38.6296C0 41.671 2.47794 44.1481 5.52055 44.1481H143.479C146.519 44.1481 149 41.671 149 38.6296V5.51852C149 2.48815 146.519 0 143.479 0Z" fill="#A6A6A6"/>
<path d="M78.4936 14.604C77.4986 14.604 76.6598 14.2545 75.9965 13.5664C75.3386 12.8976 74.9713 11.9755 74.9877 11.0342C74.9877 10.0296 75.3276 9.17911 75.9965 8.50478C76.6571 7.81668 77.4958 7.46713 78.4908 7.46713C79.4749 7.46713 80.3137 7.81668 80.988 8.50478C81.6568 9.20113 81.9967 10.0516 81.9967 11.0342C81.9857 12.0416 81.6458 12.8921 80.988 13.5637C80.3274 14.2572 79.4886 14.604 78.4936 14.604ZM48.8873 14.604C47.9142 14.604 47.0699 14.26 46.3792 13.5802C45.6939 12.9031 45.3458 12.0471 45.3458 11.037C45.3458 10.0268 45.6939 9.17086 46.3792 8.49377C47.0562 7.81393 47.9005 7.46989 48.8873 7.46989C49.3697 7.46989 49.8384 7.56622 50.288 7.76164C50.7293 7.95155 51.0884 8.21027 51.3542 8.5268L51.42 8.60662L50.6772 9.33875L50.6004 9.24792C50.1811 8.74699 49.6191 8.50203 48.8763 8.50203C48.213 8.50203 47.6346 8.73873 47.1577 9.20664C46.678 9.67729 46.434 10.2938 46.434 11.0397C46.434 11.7856 46.678 12.4021 47.1577 12.8728C47.6346 13.3407 48.213 13.5774 48.8763 13.5774C49.5835 13.5774 50.1783 13.3407 50.6416 12.8728C50.9157 12.5976 51.0856 12.2122 51.1459 11.7251H48.7639V10.6957H52.1683L52.182 10.7893C52.2067 10.9627 52.2314 11.1416 52.2314 11.3067C52.2314 12.2563 51.9463 13.0242 51.3817 13.5912C50.7402 14.2628 49.9015 14.604 48.8873 14.604ZM88.2518 14.4582H87.202L83.9867 9.29196L84.0141 10.2223V14.4554H82.9643V7.61576H84.1621L84.195 7.66806L87.2184 12.5343L87.191 11.6067V7.61576H88.2518V14.4582ZM70.6048 14.4582H69.5412V8.64515H67.6965V7.61576H72.4468V8.64515H70.602V14.4582H70.6048ZM66.8303 14.4582H65.7695V7.61576H66.8303V14.4582ZM60.8685 14.4582H59.8077V8.64515H57.963V7.61576H62.7132V8.64515H60.8685V14.4582ZM57.2914 14.4472H53.2237V7.61576H57.2914V8.64515H54.2872V10.5223H56.9981V11.5407H54.2872V13.4178H57.2914V14.4472ZM76.7749 12.859C77.2491 13.3352 77.8248 13.5747 78.4936 13.5747C79.1816 13.5747 79.7435 13.3407 80.2122 12.859C80.6782 12.3911 80.9139 11.7774 80.9139 11.037C80.9139 10.2966 80.6782 9.68004 80.215 9.21489C79.7408 8.73873 79.1624 8.49927 78.4963 8.49927C77.8083 8.49927 77.2464 8.73323 76.7804 9.21489C76.3144 9.6828 76.0787 10.2966 76.0787 11.037C76.0787 11.7774 76.3117 12.3939 76.7749 12.859Z" fill="white"/>
<path fill-rule="evenodd" clip-rule="evenodd" d="M74.8891 24.0117C72.2988 24.0117 70.1991 25.9852 70.1991 28.7073C70.1991 31.4046 72.3125 33.4029 74.8891 33.4029C77.4795 33.4029 79.5791 31.4156 79.5791 28.7073C79.5791 25.9852 77.4795 24.0117 74.8891 24.0117ZM74.8891 31.5422C73.472 31.5422 72.2522 30.3642 72.2522 28.6963C72.2522 27.0036 73.4747 25.8503 74.8891 25.8503C76.3063 25.8503 77.5261 27.0036 77.5261 28.6963C77.5288 30.3752 76.3063 31.5422 74.8891 31.5422ZM64.6566 24.0117C62.0663 24.0117 59.9666 25.9852 59.9666 28.7073C59.9666 31.4046 62.08 33.4029 64.6566 33.4029C67.247 33.4029 69.3466 31.4156 69.3466 28.7073C69.3466 25.9852 67.2442 24.0117 64.6566 24.0117ZM64.6566 31.5422C63.2395 31.5422 62.0197 30.3642 62.0197 28.6963C62.0197 27.0036 63.2422 25.8503 64.6566 25.8503C66.0738 25.8503 67.2936 27.0036 67.2936 28.6963C67.2936 30.3752 66.0738 31.5422 64.6566 31.5422ZM52.4807 25.4457V27.4329H57.231C57.0857 28.5477 56.7184 29.3706 56.1565 29.9349C55.4603 30.634 54.3858 31.3936 52.4917 31.3936C49.5724 31.3936 47.2891 29.0266 47.2891 26.0953C47.2891 23.164 49.5724 20.797 52.4917 20.797C54.0678 20.797 55.2163 21.4218 56.0688 22.2199L57.4722 20.8107C56.2881 19.6712 54.712 18.7987 52.5026 18.7987C48.4979 18.7987 45.1373 22.0741 45.1373 26.0843C45.1373 30.1055 48.4952 33.3698 52.5026 33.3698C54.6654 33.3698 56.2881 32.6597 57.5709 31.3221C58.8784 30.0092 59.2923 28.1568 59.2923 26.6623C59.2923 26.1971 59.2567 25.7788 59.1827 25.4237H52.478C52.4807 25.421 52.4807 25.4457 52.4807 25.4457ZM102.284 26.9926C101.892 25.9384 100.707 24.0007 98.2788 24.0007C95.8722 24.0007 93.8712 25.9026 93.8712 28.6963C93.8712 31.3331 95.8502 33.3918 98.5118 33.3918C100.65 33.3918 101.894 32.079 102.407 31.3083L100.82 30.2404C100.294 31.0248 99.5617 31.5395 98.5228 31.5395C97.473 31.5395 96.7384 31.0606 96.2504 30.1165L102.503 27.5155C102.503 27.5183 102.284 26.9926 102.284 26.9926ZM95.9078 28.5614C95.8585 26.7476 97.3112 25.8256 98.3501 25.8256C99.1697 25.8256 99.8522 26.2302 100.085 26.8192L95.9078 28.5614ZM90.8286 33.1111H92.8816V19.3162H90.8286V33.1111ZM87.457 25.0549H87.383C86.9198 24.5017 86.0399 24.0007 84.916 24.0007C82.5834 24.0007 80.4343 26.0623 80.4343 28.71C80.4343 31.3468 82.5724 33.3836 84.916 33.3836C86.0262 33.3836 86.9198 32.8799 87.383 32.3157H87.457V32.99C87.457 34.7818 86.5031 35.7479 84.9654 35.7479C83.7072 35.7479 82.926 34.8396 82.608 34.0799L80.8236 34.8286C81.3362 36.0672 82.704 37.6002 84.9626 37.6002C87.3693 37.6002 89.4087 36.1773 89.4087 32.7065V24.2815H87.468V25.0549C87.4707 25.0549 87.457 25.0549 87.457 25.0549ZM85.0997 31.5422C83.6825 31.5422 82.4984 30.3532 82.4984 28.71C82.4984 27.0531 83.6825 25.8531 85.0997 25.8531C86.5031 25.8531 87.5913 27.0669 87.5913 28.71C87.605 30.3532 86.5059 31.5422 85.0997 31.5422ZM111.897 19.3162H106.987V33.1111H109.04V27.8871H111.899C114.172 27.8871 116.406 26.2329 116.406 23.6071C116.406 20.9814 114.18 19.3162 111.897 19.3162ZM111.957 25.9604H109.038V21.2263H111.957C113.495 21.2263 114.364 22.5007 114.364 23.5934C114.364 24.6751 113.484 25.9604 111.957 25.9604ZM124.634 23.987C123.143 23.987 121.606 24.6503 120.97 26.0953L122.79 26.8549C123.182 26.0953 123.9 25.8366 124.659 25.8366C125.723 25.8366 126.797 26.4751 126.822 27.6146V27.7605C126.455 27.5513 125.649 27.232 124.684 27.232C122.718 27.232 120.726 28.311 120.726 30.334C120.726 32.1863 122.337 33.3753 124.133 33.3753C125.512 33.3753 126.271 32.7505 126.745 32.0267H126.819V33.0946H128.798V27.81C128.798 25.3494 126.978 23.987 124.634 23.987ZM124.377 31.5422C123.705 31.5422 122.765 31.212 122.765 30.3642C122.765 29.2963 123.938 28.8917 124.939 28.8917C125.843 28.8917 126.271 29.0871 126.808 29.3569C126.66 30.5954 125.618 31.5312 124.377 31.5422ZM136.018 24.2815L133.661 30.2651H133.587L131.145 24.2815H128.935L132.6 32.6459L130.511 37.2947H132.649L138.288 24.2815H136.018ZM117.538 33.1111H119.591V19.3162H117.538V33.1111Z" fill="white"/>
<path fill-rule="evenodd" clip-rule="evenodd" d="M11.4688 8.31488C11.1508 8.65893 10.9671 9.18464 10.9671 9.87273V34.2781C10.9671 34.9662 11.1508 35.4919 11.4797 35.8222L11.5647 35.8965L25.1824 22.2227V21.9171L11.5537 8.24057L11.4688 8.31488Z" fill="url(#paint0_linear)"/>
<path fill-rule="evenodd" clip-rule="evenodd" d="M29.7133 26.7944L25.1713 22.2337V21.9145L29.7133 17.3538L29.812 17.4143L35.1845 20.4805C36.7223 21.3502 36.7223 22.787 35.1845 23.6677L29.812 26.7339L29.7133 26.7944Z" fill="url(#paint1_linear)"/>
<path fill-rule="evenodd" clip-rule="evenodd" d="M29.812 26.7338L25.1714 22.0741L11.4687 35.8332C11.9703 36.3727 12.8118 36.4332 13.752 35.9075L29.812 26.7338Z" fill="url(#paint2_linear)"/>
<path fill-rule="evenodd" clip-rule="evenodd" d="M29.812 17.4143L13.752 8.25437C12.8118 7.7149 11.9675 7.78921 11.4687 8.32868L25.1714 22.0741L29.812 17.4143Z" fill="url(#paint3_linear)"/>
<path opacity="0.2" fill-rule="evenodd" clip-rule="evenodd" d="M29.7134 26.6348L13.7629 35.7342C12.8721 36.2488 12.0771 36.2131 11.5646 35.7452L11.4796 35.8305L11.5646 35.9048C12.0771 36.37 12.8721 36.4085 13.7629 35.8938L29.823 26.7339L29.7134 26.6348Z" fill="black"/>
<path opacity="0.12" fill-rule="evenodd" clip-rule="evenodd" d="M35.1846 23.5081L29.6997 26.6348L29.7984 26.7338L35.1709 23.6677C35.9411 23.2273 36.3194 22.6493 36.3194 22.0741C36.2728 22.6025 35.8808 23.1035 35.1846 23.5081Z" fill="black"/>
<path opacity="0.25" fill-rule="evenodd" clip-rule="evenodd" d="M13.7521 8.41405L35.1846 20.6401C35.8809 21.0337 36.2728 21.5484 36.3331 22.0741C36.3331 21.4989 35.9549 20.9209 35.1846 20.4805L13.7521 8.25441C12.2143 7.3709 10.9671 8.10854 10.9671 9.87281V10.0324C10.9671 8.26542 12.2143 7.54155 13.7521 8.41405Z" fill="white"/>
</g>
<defs>
<linearGradient id="paint0_linear" x1="23.9609" y1="9.60942" x2="2.13584" y2="15.4009" gradientUnits="userSpaceOnUse">
<stop stop-color="#00A0FF"/>
<stop offset="0.00657" stop-color="#00A1FF"/>
<stop offset="0.2601" stop-color="#00BEFF"/>
<stop offset="0.5122" stop-color="#00D2FF"/>
<stop offset="0.7604" stop-color="#00DFFF"/>
<stop offset="1" stop-color="#00E3FF"/>
</linearGradient>
<linearGradient id="paint1_linear" x1="37.1899" y1="22.0741" x2="10.5931" y2="22.0741" gradientUnits="userSpaceOnUse">
<stop stop-color="#FFE000"/>
<stop offset="0.4087" stop-color="#FFBD00"/>
<stop offset="0.7754" stop-color="#FFA500"/>
<stop offset="1" stop-color="#FF9C00"/>
</linearGradient>
<linearGradient id="paint2_linear" x1="27.2886" y1="24.6097" x2="9.67043" y2="54.1409" gradientUnits="userSpaceOnUse">
<stop stop-color="#FF3A44"/>
<stop offset="1" stop-color="#C31162"/>
</linearGradient>
<linearGradient id="paint3_linear" x1="8.01817" y1="0.197316" x2="15.8784" y2="13.3865" gradientUnits="userSpaceOnUse">
<stop stop-color="#32A071"/>
<stop offset="0.0685" stop-color="#2DA771"/>
<stop offset="0.4762" stop-color="#15CF74"/>
<stop offset="0.8009" stop-color="#06E775"/>
<stop offset="1" stop-color="#00F076"/>
</linearGradient>
<clipPath id="clip0">
<rect width="149" height="44.1481" fill="white"/>
</clipPath>
</defs>
</svg>
