<svg width="129" height="79" viewBox="0 0 129 79" fill="none" xmlns="http://www.w3.org/2000/svg">
<path d="M37.1391 43.4994C37.1391 49.5987 35.5165 54.3096 32.2711 57.6321C29.0258 60.9546 24.4525 62.6156 18.5513 62.615C16.2402 62.615 14.2733 62.2926 12.6504 61.6478V70.574C12.6504 73.4502 11.2981 74.8387 8.59352 74.7393H6.9708C4.46297 74.7393 2.69271 74.3056 1.66001 73.4381C0.627315 72.5706 0.111015 71.021 0.111115 68.7893V33.0854C0.111115 31.8456 0.356936 30.8043 0.848579 29.9614C1.34022 29.1186 2.15161 28.3004 3.28273 27.5069C4.80708 26.4653 6.71263 25.6594 8.99939 25.0893C11.4761 24.497 14.0148 24.2097 16.5601 24.2338C23.0019 24.2338 27.9194 25.7958 31.3125 28.9197C35.197 32.3417 37.1392 37.2016 37.1391 43.4994ZM17.0021 34.127C15.459 34.1318 13.9403 34.515 12.5767 35.2435V51.607C14.1011 52.3012 15.478 52.6483 16.7074 52.6483C21.7722 52.6483 24.3047 49.5987 24.3049 43.4994C24.3049 37.2509 21.8707 34.1268 17.0024 34.127H17.0021Z" fill="#3088C8"/>
<path d="M50.7237 61.9518C49.953 62.5031 48.9955 62.7538 47.8512 62.7038H46.2112C43.6751 62.7038 41.8726 62.2526 40.8037 61.3501C39.7348 60.4475 39.2002 58.8931 39.2 56.6867V29.5345C39.2 27.8295 39.573 26.7012 40.3189 26.1495C41.0649 25.5979 42.0345 25.3222 43.2279 25.3223L44.8686 25.3973C47.4047 25.3973 49.2072 25.8485 50.2761 26.7509C51.345 27.6534 51.8796 29.2079 51.8798 31.4145V58.5665C51.8798 60.2717 51.4944 61.4001 50.7237 61.9518Z" fill="#3088C8"/>
<path d="M53.831 60.7869L54.6402 60.2848C56.383 59.1129 57.2544 57.167 57.2543 54.4473V28.8375C57.2543 27.4146 57.5655 26.473 58.1881 26.0127C58.8106 25.5523 59.6198 25.3222 60.6157 25.3223L61.9849 25.385C64.1013 25.385 65.6056 25.7616 66.4977 26.5147C67.3898 27.2678 67.8359 28.5651 67.836 30.4065V55.4515C67.836 58.9665 67.0372 61.7912 65.4398 63.9254C63.8423 66.0597 61.6743 67.1266 58.9358 67.1263C57.7764 67.1494 56.6338 66.8451 55.6369 66.2477C54.6944 65.6756 53.954 64.8192 53.5204 63.7997C53.2895 63.3306 53.1621 62.8167 53.1471 62.2932C53.1466 61.6236 53.3746 61.1215 53.831 60.7869Z" fill="#3088C8"/>
<path d="M101.94 38.0069V53.5337C101.966 54.5072 101.69 55.4647 101.149 56.2719C100.622 57.0343 99.7632 57.7621 98.5718 58.4551C95.6394 60.2574 91.4466 61.1586 85.9932 61.1586C80.9066 61.1586 76.9775 60.1997 74.2057 58.2819C71.434 56.364 70.0475 53.5568 70.0464 49.86C70.0464 46.6718 70.9858 44.2226 72.8646 42.5126C74.7433 40.8027 77.6532 39.7398 81.5941 39.324L90.5984 38.3537V37.8685C90.5984 35.3732 88.3302 34.1254 83.7937 34.1253C81.8231 34.1253 79.5548 34.4488 76.9887 35.0958C76.0722 35.3269 75.4078 35.4424 74.9954 35.4423C74.572 35.4568 74.1523 35.3587 73.7783 35.158C73.4043 34.9573 73.0892 34.661 72.8646 34.2988C72.3604 33.5362 72.1084 32.6004 72.1084 31.4914C72.1084 30.2902 72.3719 29.3428 72.8988 28.6495C73.4258 27.9562 74.3308 27.3324 75.6138 26.7781C77.9966 25.8075 81.2731 25.3223 85.4432 25.3223C90.7587 25.3223 94.837 26.3966 97.6781 28.5454C100.519 30.6941 101.94 33.848 101.94 38.0069ZM90.6673 51.6626V46.1171L85.7184 46.5329C82.7855 46.7178 81.3191 47.6884 81.3192 49.4446C81.3192 51.5239 82.8769 52.5636 85.9925 52.5637C86.9028 52.5642 87.8114 52.483 88.7075 52.3211C89.6016 52.1591 90.2549 51.9396 90.6673 51.6626Z" fill="#3088C8"/>
<path d="M115.3 61.9557C114.463 62.5223 113.463 62.7936 112.457 62.7273L111 62.6539C108.522 62.6539 106.761 62.213 105.716 61.3313C104.672 60.4496 104.149 58.9308 104.15 56.7748V34.7287C104.15 32.7688 104.854 31.1767 106.263 29.9522C107.672 28.7276 109.955 27.6007 113.113 26.5714C115.81 25.7638 118.607 25.3432 121.421 25.3223C126.474 25.3222 129 27.2574 129 31.1279C129 31.7158 128.976 32.0586 128.927 32.1565C128.733 33.8712 127.421 34.8511 124.992 35.0961C123.412 35.2473 121.843 35.4929 120.292 35.8315C118.713 36.1745 117.462 36.5419 116.539 36.9336V58.6115C116.539 60.2777 116.126 61.3925 115.3 61.9557Z" fill="#3088C8"/>
<path d="M57.1815 0.891301V9.20732C55.9825 9.78776 54.8299 10.4608 53.7338 11.2204C49.3794 7.48027 45.54 7.74368 45.54 7.74368C50.1303 0.546851 57.1815 0.891301 57.1815 0.891301Z" fill="#FFC555"/>
<path d="M53.7338 11.221C46.4766 16.2629 45.5499 22.8444 45.5499 22.8444L45.54 7.74425C45.54 7.74425 49.3794 7.48085 53.7338 11.221Z" fill="url(#paint0_linear)"/>
<path d="M33.8983 0.891301V9.20732C35.0973 9.78776 36.2499 10.4608 37.346 11.2204C41.7004 7.48027 45.54 7.74368 45.54 7.74368C40.9495 0.546851 33.8983 0.891301 33.8983 0.891301Z" fill="#FFC555"/>
<path d="M37.346 11.221C44.6032 16.2629 45.5298 22.8444 45.5298 22.8444L45.54 7.74425C45.54 7.74425 41.7004 7.48085 37.346 11.221Z" fill="#F6931E"/>
<path d="M17.5111 72.3546C17.5064 72.1975 17.5141 72.0403 17.534 71.8844C17.5553 71.7903 17.5887 71.6995 17.6334 71.6142C17.7252 71.4703 17.975 71.3983 18.3828 71.3983C18.5077 71.3875 18.6335 71.4017 18.7529 71.44C18.8724 71.4784 18.9831 71.5402 19.0788 71.6219C19.2438 71.8127 19.3385 72.0552 19.3467 72.3082C19.4139 72.1549 19.5127 72.0178 19.6367 71.9061C19.7606 71.7943 19.9068 71.7106 20.0654 71.6603C20.4814 71.508 20.9219 71.4348 21.3644 71.4443C21.6792 71.4339 21.9932 71.4837 22.2897 71.591C22.5635 71.7127 22.8105 71.8883 23.0161 72.1076C23.2651 72.3622 23.4578 72.6671 23.5817 73.0021C23.64 72.702 23.7928 72.4288 24.0173 72.2231C24.2928 71.9544 24.6174 71.7423 24.9733 71.5986C25.3153 71.4656 25.6774 71.3926 26.0438 71.3828C26.8491 71.3828 27.4659 71.6989 27.8942 72.3312C28.3226 72.9635 28.5372 73.8812 28.5381 75.0844V77.7833C28.5488 77.9959 28.5282 78.209 28.4768 78.4156C28.4565 78.4766 28.4225 78.532 28.3774 78.5775C28.3323 78.623 28.2773 78.6573 28.2168 78.6776C28.0074 78.7338 27.7912 78.7598 27.5746 78.7549C27.3578 78.7626 27.1412 78.7366 26.9323 78.6776C26.8745 78.6601 26.822 78.6283 26.7792 78.5853C26.7365 78.5423 26.705 78.4893 26.6875 78.431C26.6367 78.2139 26.6161 77.9907 26.6263 77.7678V75.0689C26.6263 74.5242 26.5116 74.1001 26.2822 73.7967C26.1666 73.646 26.0165 73.5258 25.8446 73.4466C25.6728 73.3673 25.4844 73.3314 25.2958 73.3417C24.5715 73.3417 24.1535 73.7376 24.0419 74.5292L23.996 77.7833L24.0109 78.1998C24.0109 78.4363 23.9497 78.5879 23.8273 78.6547C23.6182 78.7369 23.3935 78.7711 23.1697 78.7549C22.9579 78.7652 22.7458 78.739 22.5427 78.6776C22.4885 78.6594 22.4401 78.627 22.4025 78.5837C22.3648 78.5403 22.3394 78.4876 22.3287 78.431C22.2998 78.2111 22.2845 77.9896 22.2827 77.7678L22.2215 75.0689C22.2116 74.4521 22.102 74.01 21.8927 73.7428C21.6835 73.4755 21.3496 73.3418 20.8911 73.3417C20.6927 73.336 20.4955 73.3753 20.3142 73.4567C20.1328 73.5381 19.972 73.6596 19.8435 73.8121C19.5594 74.1664 19.4151 74.614 19.4382 75.0689V77.7987C19.4486 78.0063 19.4279 78.2142 19.377 78.4156C19.3567 78.4766 19.3227 78.532 19.2776 78.5774C19.2325 78.6229 19.1776 78.6572 19.1172 78.6776C18.6847 78.7807 18.2344 78.7807 17.8019 78.6776C17.7408 78.6617 17.6853 78.6286 17.642 78.5823C17.5987 78.5359 17.5692 78.4781 17.5571 78.4156C17.5194 78.2071 17.5041 77.9951 17.5113 77.7833L17.5111 72.3546Z" fill="#F79844"/>
<path d="M36.0004 71.2752C36.0779 71.2691 36.1558 71.2789 36.2294 71.3041C36.3031 71.3293 36.3708 71.3694 36.4286 71.4218C36.4886 71.4742 36.5363 71.5395 36.568 71.6129C36.5998 71.6862 36.6148 71.7658 36.6121 71.8458V77.7833C36.6168 77.9404 36.6091 78.0977 36.5892 78.2537C36.5678 78.3477 36.5344 78.4385 36.4898 78.5238C36.4591 78.5855 36.3622 78.6371 36.1992 78.678C35.9837 78.7281 35.7625 78.7488 35.5416 78.7396C34.9398 78.7396 34.639 78.5238 34.6393 78.092L34.6542 77.9379C34.3075 78.4621 33.6092 78.7242 32.5591 78.7243C31.9966 78.7173 31.4497 78.537 30.9916 78.2077C30.4828 77.8587 30.0656 77.3903 29.7758 76.8428C29.4665 76.3069 29.3029 75.6982 29.3016 75.0781C29.3003 74.458 29.4612 73.8486 29.7682 73.3113C30.0648 72.7617 30.4868 72.2912 30.9993 71.9386C31.4525 71.6045 31.9978 71.4213 32.5591 71.4143C32.988 71.4145 33.4114 71.5119 33.7978 71.6995C34.1609 71.8608 34.4731 72.1195 34.7002 72.4475V71.8772C34.6984 71.8106 34.7096 71.7443 34.7333 71.6822C34.7569 71.62 34.7924 71.5631 34.8379 71.5147C34.9311 71.4163 35.0555 71.3535 35.1896 71.3373L36.0004 71.2752ZM31.4507 75.9169C31.6064 76.1821 31.8243 76.4045 32.0854 76.5646C32.3458 76.7309 32.6488 76.8167 32.9571 76.8115C33.1798 76.8133 33.4006 76.769 33.6058 76.6815C33.8109 76.594 33.9961 76.465 34.15 76.3025C34.3121 76.1449 34.4406 75.9555 34.5273 75.746C34.6141 75.5364 34.6574 75.3112 34.6545 75.0841C34.6584 74.8546 34.6156 74.6268 34.5288 74.4146C34.4421 74.2024 34.3131 74.0104 34.15 73.8504C33.9937 73.6868 33.8059 73.5573 33.5981 73.4698C33.3903 73.3822 33.1669 73.3386 32.9417 73.3415C32.7146 73.3408 32.4896 73.3854 32.2797 73.4728C32.0697 73.5601 31.8789 73.6885 31.7184 73.8504C31.5578 74.0124 31.4305 74.2047 31.3439 74.4165C31.2573 74.6282 31.213 74.8551 31.2137 75.0841C31.2153 75.3784 31.2973 75.6666 31.4507 75.9169Z" fill="#F79844"/>
<path d="M37.3767 68.5606C37.3725 68.406 37.3802 68.2513 37.3998 68.098C37.4213 67.9967 37.4547 67.8984 37.4992 67.805H37.4843C37.5566 67.7242 37.6534 67.67 37.7596 67.6507C37.951 67.6148 38.1455 67.5993 38.3401 67.6045C38.5297 67.5996 38.7193 67.6151 38.9057 67.6507C39.0067 67.6723 39.0979 67.7264 39.1657 67.805V67.82C39.2102 67.9054 39.2436 67.9962 39.2651 68.0902C39.2851 68.2513 39.2928 68.4138 39.288 68.5762V72.0613C39.5707 71.8426 39.8966 71.6875 40.2438 71.6064C40.6394 71.4922 41.0486 71.4325 41.4601 71.429C42.0303 71.4259 42.5887 71.5922 43.0658 71.9072C43.5613 72.2329 43.9623 72.6852 44.2281 73.2181C44.5091 73.7988 44.6506 74.438 44.6411 75.0841V77.7984C44.6514 78.006 44.6307 78.2139 44.5799 78.4153C44.5643 78.4763 44.5337 78.5323 44.4909 78.5781C44.4481 78.6239 44.3945 78.6581 44.3351 78.6773C44.1206 78.7341 43.8992 78.7601 43.6775 78.7546C43.4596 78.7653 43.2416 78.7339 43.0353 78.662C42.9777 78.6396 42.9257 78.6043 42.8834 78.559C42.841 78.5136 42.8093 78.4592 42.7905 78.3998C42.7391 78.1933 42.7184 77.9802 42.7293 77.7675V75.0686C42.749 74.6084 42.5868 74.1591 42.2782 73.8195C42.1276 73.6611 41.9456 73.5367 41.744 73.4543C41.5424 73.3719 41.3258 73.3335 41.1084 73.3414C40.667 73.3388 40.238 73.4885 39.8926 73.7656C39.7273 73.8819 39.5882 74.0319 39.4841 74.2059C39.3801 74.3799 39.3134 74.574 39.2884 74.7757V77.7984C39.2988 78.006 39.2782 78.2139 39.2273 78.4153C39.2117 78.4762 39.1812 78.5323 39.1384 78.5781C39.0956 78.6239 39.042 78.658 38.9826 78.6773C38.768 78.734 38.5466 78.7601 38.3249 78.7546C38.1082 78.7623 37.8916 78.7363 37.6827 78.6773C37.6251 78.6549 37.5731 78.6197 37.5308 78.5744C37.4884 78.529 37.4567 78.4746 37.4379 78.4153C37.3865 78.2087 37.3658 77.9956 37.3767 77.783V68.5606Z" fill="#F79844"/>
<path d="M45.7267 69.4719C45.6646 69.4548 45.6079 69.4216 45.5623 69.3757C45.5167 69.3297 45.4838 69.2726 45.4667 69.2099C45.412 68.9986 45.3914 68.7798 45.4056 68.5619C45.3945 68.3438 45.4177 68.1252 45.4743 67.9143C45.4943 67.856 45.5277 67.8033 45.5716 67.7605C45.6156 67.7176 45.6689 67.6858 45.7273 67.6676C45.9368 67.6125 46.1536 67.5917 46.3696 67.6059C46.5863 67.6011 46.8025 67.6271 47.0121 67.683C47.0696 67.7057 47.1214 67.7409 47.1637 67.7863C47.206 67.8316 47.2377 67.8859 47.2566 67.9452C47.308 68.1518 47.3286 68.3649 47.3178 68.5775C47.3319 68.7953 47.3113 69.014 47.2566 69.2252C47.2391 69.2834 47.2076 69.3363 47.1649 69.3794C47.1223 69.4224 47.0698 69.4542 47.0121 69.4719C46.5877 69.5542 46.1517 69.5542 45.7273 69.4719H45.7267ZM45.4056 72.3713C45.3945 72.1531 45.4177 71.9344 45.4743 71.7235C45.4943 71.6652 45.5277 71.6125 45.5716 71.5697C45.6156 71.5268 45.6689 71.495 45.7273 71.4768C45.9368 71.4217 46.1536 71.4009 46.3696 71.4151C46.7367 71.4151 46.9839 71.4562 47.1114 71.5385C47.1791 71.5897 47.2325 71.658 47.266 71.7364C47.2996 71.8149 47.3122 71.9008 47.3026 71.9857C47.3189 72.1239 47.3239 72.2631 47.3175 72.4021V77.7998C47.3313 78.0125 47.3106 78.2261 47.2563 78.4321C47.2388 78.4903 47.2073 78.5433 47.1647 78.5863C47.122 78.6293 47.0695 78.661 47.0118 78.6787C46.5793 78.7818 46.129 78.7818 45.6965 78.6787C45.6354 78.6628 45.5799 78.6297 45.5366 78.5833C45.4933 78.5369 45.4638 78.4792 45.4517 78.4166C45.4141 78.2081 45.3987 77.9961 45.4059 77.7843L45.4056 72.3713Z" fill="#F79844"/>
<path d="M48.0816 77.7684V72.3553C48.0705 72.1371 48.0938 71.9185 48.1505 71.7076C48.1705 71.6494 48.2039 71.5967 48.2478 71.5538C48.2918 71.511 48.3451 71.4791 48.4035 71.4609C48.613 71.4058 48.8299 71.385 49.0459 71.3992C49.3924 71.3992 49.632 71.4404 49.7647 71.5227C49.8969 71.605 49.9636 71.7642 49.9636 72.0006C50.0553 71.7951 50.2871 71.6306 50.6592 71.5071C51.0776 71.377 51.5138 71.3146 51.9515 71.3222C52.3247 71.3094 52.6973 71.3615 53.0529 71.4764C53.1824 71.5111 53.2959 71.5902 53.3739 71.7C53.4437 71.8353 53.4755 71.9873 53.4658 72.1394C53.4683 72.4489 53.3863 72.753 53.2287 73.0185C53.0706 73.2862 52.8999 73.4198 52.7164 73.4195C52.5888 73.4158 52.4636 73.3842 52.3494 73.3269C52.0892 73.213 51.8068 73.1603 51.5235 73.1728C51.1319 73.1704 50.7543 73.3194 50.4683 73.5891C50.326 73.7074 50.2111 73.8557 50.1319 74.0236C50.0526 74.1915 50.0108 74.3748 50.0094 74.5608V77.7994C50.0144 77.9616 50.0067 78.124 49.9865 78.285C49.9652 78.3791 49.9318 78.4699 49.8871 78.5552V78.5402C49.8148 78.6209 49.7179 78.6752 49.6117 78.6945C49.4223 78.7436 49.2267 78.7644 49.0313 78.7562C48.6741 78.7562 48.4319 78.7176 48.3048 78.6404C48.2355 78.5906 48.1792 78.5246 48.1406 78.4481C48.1019 78.3716 48.0822 78.2868 48.0831 78.201L48.0816 77.7684Z" fill="#F79844"/>
<defs>
<linearGradient id="paint0_linear" x1="51.559" y1="15.2923" x2="45.9546" y2="15.2923" gradientUnits="userSpaceOnUse">
<stop stop-color="#F6931E"/>
<stop offset="0.304" stop-color="#F78E1E"/>
<stop offset="0.552" stop-color="#F9831E"/>
<stop offset="0.779" stop-color="#FB7A1E"/>
<stop offset="0.994" stop-color="#FF681E"/>
</linearGradient>
</defs>
</svg>
