<?xml version="1.0" encoding="utf-8"?>
<!-- Generator: Adobe Illustrator 27.2.0, SVG Export Plug-In . SVG Version: 6.00 Build 0)  -->
<svg version="1.1" id="kartu" xmlns="http://www.w3.org/2000/svg" xmlns:xlink="http://www.w3.org/1999/xlink" x="0px" y="0px"
	 viewBox="0 0 1562.9 527" style="enable-background:new 0 0 1562.9 527;" xml:space="preserve">
<style type="text/css">
	.st0{fill:#2A72C7;}
	.st1{fill:#F05E00;}
</style>
<g>
	<g>
		<g>
			<path class="st0" d="M88.5,222.8c0-12.4,2.2-23.8,6.7-34.4c4.5-10.6,10.7-19.7,18.5-27.5s17.1-13.9,27.7-18.4s21.9-6.7,34.1-6.7
				s23.5,2.3,34.1,6.9c10.6,4.6,19.7,10.8,27.5,18.6s14,16.9,18.6,27.5c4.6,10.6,6.9,21.9,6.9,34.1s-2.3,23.5-6.9,34.1
				c-4.6,10.5-10.8,19.7-18.6,27.5c-7.8,7.8-16.9,14-27.5,18.5s-21.9,6.9-34.1,6.9c-9.2,0-18.4-1.9-27.7-5.6
				c-9.3-3.7-16.7-8.1-22.2-13.3v113.3H88.5V222.8z M125.6,222.8c0,6.8,1.3,13.3,4,19.4c2.7,6.1,6.2,11.4,10.7,15.8
				c4.5,4.5,9.8,8,15.8,10.7c6.1,2.7,12.5,4,19.4,4c6.8,0,13.3-1.3,19.3-4c6.1-2.7,11.4-6.2,15.8-10.7c4.5-4.5,8.1-9.8,10.7-15.8
				s4-12.5,4-19.4c0-6.8-1.3-13.3-4-19.4c-2.7-6.1-6.2-11.4-10.7-15.8s-9.8-8.1-15.8-10.7c-6.1-2.7-12.5-4-19.3-4
				c-6.8,0-13.3,1.3-19.4,4s-11.4,6.2-15.8,10.7c-4.5,4.5-8.1,9.8-10.7,15.8C126.9,209.5,125.6,215.9,125.6,222.8z"/>
			<path class="st0" d="M477.6,222.4c0-12.1,2.3-23.5,6.9-34.1c4.6-10.6,10.8-19.7,18.7-27.5c7.9-7.8,17.1-14,27.7-18.6
				c10.6-4.6,21.9-6.9,34.1-6.9s23.5,2.3,34.1,6.9c10.5,4.6,19.7,10.8,27.5,18.6s14,16.9,18.5,27.5c4.6,10.6,6.9,21.9,6.9,34.1v80.3
				h-37.1v-9c-14.5,10.5-31.1,15.7-49.9,15.7c-13.2,0-25.2-2.2-36-6.7c-10.8-4.5-19.9-10.7-27.5-18.5c-7.6-7.9-13.4-17.1-17.6-27.7
				C479.7,245.9,477.6,234.6,477.6,222.4z M514.7,222.4c0,6.8,1.3,13.3,4,19.4c2.7,6.1,6.2,11.4,10.8,15.8c4.5,4.5,9.8,8,15.9,10.7
				c6.1,2.7,12.6,4,19.4,4c6.8,0,13.3-1.2,19.4-3.7c6.1-2.5,11.4-5.9,15.9-10.4c4.5-4.5,8.1-9.8,10.8-15.8s4-12.7,4-20
				c0-6.8-1.3-13.3-4-19.4s-6.2-11.4-10.8-15.8c-4.5-4.5-9.8-8.1-15.9-10.7s-12.6-4-19.4-4c-6.8,0-13.3,1.3-19.4,4
				s-11.4,6.2-15.9,10.7c-4.5,4.5-8.1,9.8-10.8,15.8C516,209.2,514.7,215.6,514.7,222.4z"/>
			<path class="st0" d="M715.7,199.1l58.5-56.3h49.9l-70,68.1l70,91.8h-48.3l-49.6-64.9l-10.2,9.9v55h-37.4V78.8h37.1L715.7,199.1
				L715.7,199.1z"/>
			<path class="st0" d="M871,225c0.2,6.6,1.7,12.8,4.5,18.6c2.8,5.8,6.4,10.8,10.9,15c4.5,4.3,9.7,7.6,15.7,10.1
				c6,2.5,12.2,3.7,18.9,3.7c11.1,0,20.6-2.7,28.5-8.1c7.9-5.4,13.7-12.7,17.3-21.9h40.6c-3.6,12.1-8.4,22.5-14.4,31
				c-6,8.5-12.8,15.5-20.5,20.8c-7.7,5.3-15.9,9.2-24.6,11.7s-17.7,3.7-26.9,3.7c-12.2,0-23.5-2.3-34.1-6.9
				c-10.5-4.6-19.7-10.8-27.6-18.5c-7.8-7.8-14-17-18.5-27.5c-4.5-10.6-6.8-21.9-6.8-34.1s2.3-23.5,6.8-34.1
				c4.5-10.6,10.7-19.7,18.5-27.5c7.8-7.8,17-14,27.6-18.6c10.6-4.6,21.9-6.9,34.1-6.9c13.4,0,25.5,2.4,36.1,7.4
				c10.7,4.9,19.7,11.5,27.2,19.7c7.5,8.2,13.3,17.8,17.4,28.6s6.3,22.2,6.5,33.9L871,225L871,225z M966.7,200
				c-3.2-9-8.8-16.6-17-22.9c-8.1-6.3-17.6-9.4-28.5-9.4c-10.9,0-20.4,3.1-28.5,9.4c-8.1,6.3-13.8,13.9-17,22.9L966.7,200L966.7,200
				z"/>
			<path class="st0" d="M1299.1,222.4c0-12.1,2.3-23.5,6.9-34.1c4.6-10.6,10.8-19.7,18.7-27.5c7.9-7.8,17.1-14,27.7-18.6
				c10.6-4.6,21.9-6.9,34.1-6.9s23.5,2.3,34.1,6.9c10.6,4.6,19.7,10.8,27.5,18.6s14,16.9,18.6,27.5c4.6,10.6,6.9,21.9,6.9,34.1v80.3
				h-37.1v-9c-14.5,10.5-31.1,15.7-49.9,15.7c-13.2,0-25.2-2.2-36-6.7c-10.8-4.5-19.9-10.7-27.5-18.5c-7.6-7.9-13.4-17.1-17.6-27.7
				C1301.2,245.9,1299.1,234.6,1299.1,222.4z M1336.2,222.4c0,6.8,1.3,13.3,4,19.4s6.2,11.4,10.8,15.8c4.5,4.5,9.8,8,15.9,10.7
				c6.1,2.7,12.6,4,19.4,4c6.8,0,13.3-1.2,19.4-3.7c6.1-2.5,11.4-5.9,15.9-10.4c4.5-4.5,8.1-9.8,10.8-15.8c2.7-6.1,4-12.7,4-20
				c0-6.8-1.3-13.3-4-19.4s-6.2-11.4-10.8-15.8c-4.5-4.5-9.8-8.1-15.9-10.7s-12.6-4-19.4-4c-6.8,0-13.3,1.3-19.4,4
				c-6.1,2.7-11.4,6.2-15.9,10.7c-4.5,4.5-8.1,9.8-10.8,15.8C1337.6,209.2,1336.2,215.6,1336.2,222.4z"/>
			<path class="st0" d="M288.3,188.4c4.6-10.6,10.8-19.7,18.5-27.5c7.8-7.8,17-14,27.5-18.6c10.6-4.6,21.9-6.9,34.1-6.9
				s23.5,2.3,34.1,6.9c10.5,4.6,19.8,10.8,27.7,18.6c7.9,7.8,14.1,16.9,18.7,27.5s6.9,21.9,6.9,34.1h-37.1c0-6.8-1.3-13.3-4-19.4
				c-2.7-6.1-6.2-11.4-10.8-15.8c-4.5-4.5-9.8-8.1-15.9-10.7s-12.6-4-19.4-4c-6.8,0-13.3,1.3-19.4,4c-6.1,2.7-11.4,6.2-15.9,10.7
				c-4.5,4.5-8.1,9.8-10.8,15.8c-2.7,6.1-4,12.5-4,19.4v71.3v9h-37.1v-80.3C281.4,210.3,283.7,198.9,288.3,188.4z"/>
			<path class="st0" d="M1036.7,188.4c4.6-10.6,10.8-19.7,18.6-27.5c7.8-7.8,16.9-14,27.5-18.6c10.6-4.6,21.9-6.9,34.1-6.9
				s23.5,2.3,34.1,6.9c10.6,4.6,19.8,10.8,27.7,18.6c7.9,7.8,14.1,16.9,18.7,27.5s6.9,21.9,6.9,34.1H1167c0-6.8-1.3-13.3-4-19.4
				s-6.2-11.4-10.8-15.8c-4.5-4.5-9.8-8.1-15.9-10.7s-12.6-4-19.4-4c-6.8,0-13.3,1.3-19.4,4c-6.1,2.7-11.4,6.2-15.9,10.7
				c-4.5,4.5-8.1,9.8-10.8,15.8c-2.7,6.1-4,12.5-4,19.4v71.3v9h-37.1v-80.3C1029.8,210.3,1032.1,198.9,1036.7,188.4z"/>
			<rect x="1236.3" y="142.8" class="st0" width="37.7" height="186.7"/>
			<path class="st0" d="M1262.4,329.5h-26h-18.6H1180l0,0l0,0c0,6.4,1.1,12.5,3.4,18.2s5.4,10.8,9.6,15c4.2,4.3,9.1,7.6,14.9,10.1
				c5.8,2.5,12.2,3.7,19.2,3.7c6.6,0,12.8-1,18.6-3s10.7-5.1,14.9-9.1c4.2-4,7.5-9,9.9-14.9c2.4-5.9,3.7-12.5,3.7-20L1262.4,329.5
				L1262.4,329.5z"/>
		</g>
	</g>
</g>
<path class="st1" d="M1117.6,245.4c6.8,0,12.5-2.2,16.9-6.7c4.5-4.5,6.7-9.9,6.7-16.3c0-6.8-2.2-12.5-6.7-16.9
	c-4.5-4.5-10.1-6.7-16.9-6.7c-6.4,0-11.8,2.2-16.3,6.7c-4.5,4.5-6.7,10.1-6.7,16.9c0,6.4,2.2,11.8,6.7,16.3
	C1105.7,243.1,1111.2,245.4,1117.6,245.4z"/>
<path class="st1" d="M1386,245.4c6.8,0,12.5-2.2,16.9-6.7c4.5-4.5,6.7-9.9,6.7-16.3c0-6.8-2.2-12.5-6.7-16.9
	c-4.5-4.5-10.1-6.7-16.9-6.7c-6.4,0-11.8,2.2-16.3,6.7c-4.5,4.5-6.7,10.1-6.7,16.9c0,6.4,2.2,11.8,6.7,16.3
	C1374.1,243.1,1379.6,245.4,1386,245.4z"/>
<path class="st1" d="M1183.8,439.7c-13.7-5.8-25.6-13.9-35.3-24.1c-9.8-10.3-17.4-21.8-22.6-34.4c-5.2-12.5-7.9-26.1-8-40.2
	c-0.1-11.6,1.8-23.2,5.8-34.6l31,13.1c-2.1,7-3.1,14.2-3,21.4c0.2,9.7,2,19,5.5,27.6c3.5,8.6,8.7,16.5,15.3,23.6
	c6.8,7.1,14.9,12.7,24.2,16.6s18.9,5.8,28.7,5.7c9.7-0.1,19-2,27.6-5.4c8.6-3.5,16.6-8.6,23.6-15.3c4.1-3.9,7.8-8.4,10.9-13.3
	l31.2,13.2c-5.1,9.2-11.4,17.4-18.7,24.4c-10.2,9.8-21.8,17.3-34.2,22.4c-12.5,5.1-26,7.7-40.1,7.9
	C1211.6,448.3,1197.5,445.4,1183.8,439.7z"/>
</svg>
