<svg width="562" height="528" viewBox="0 0 562 528" fill="none" xmlns="http://www.w3.org/2000/svg">
<g opacity="0.3">
<path d="M562 0.0627525V199.798C532.958 213.751 505.031 229.912 478.464 248.137C372.925 158.309 279.867 164.653 279.867 164.653C391.068 -8.19207 562 0.0627525 562 0.0627525Z" fill="url(#paint0_linear_1066_433652)"/>
<path d="M478.153 248.09C302.555 369.523 280.083 528 280.083 528L279.867 164.388C279.867 164.388 372.744 158.063 478.117 248.09" fill="url(#paint1_linear_1066_433652)"/>
<path d="M82.7137 248.09C258.312 369.523 280.784 528 280.784 528L281 164.388C281 164.388 188.123 158.063 82.7498 248.09" fill="url(#paint2_linear_1066_433652)"/>
<path d="M0 0.0627525V199.798C29.0421 213.751 56.9695 229.912 83.5362 248.137C189.075 158.309 282.133 164.653 282.133 164.653C170.86 -8.19207 0 0.0627525 0 0.0627525Z" fill="url(#paint3_linear_1066_433652)"/>
</g>
<defs>
<linearGradient id="paint0_linear_1066_433652" x1="6.3288" y1="5.02007e-05" x2="569.81" y2="242.677" gradientUnits="userSpaceOnUse">
<stop stop-color="#FFCE5C"/>
<stop offset="1" stop-color="#FFECAD"/>
</linearGradient>
<linearGradient id="paint1_linear_1066_433652" x1="6.3288" y1="5.02007e-05" x2="569.81" y2="242.677" gradientUnits="userSpaceOnUse">
<stop stop-color="#FFCE5C"/>
<stop offset="1" stop-color="#FFECAD"/>
</linearGradient>
<linearGradient id="paint2_linear_1066_433652" x1="6.3288" y1="5.02007e-05" x2="569.81" y2="242.677" gradientUnits="userSpaceOnUse">
<stop stop-color="#FFCE5C"/>
<stop offset="1" stop-color="#FFECAD"/>
</linearGradient>
<linearGradient id="paint3_linear_1066_433652" x1="6.3288" y1="5.02007e-05" x2="569.81" y2="242.677" gradientUnits="userSpaceOnUse">
<stop stop-color="#FFCE5C"/>
<stop offset="1" stop-color="#FFECAD"/>
</linearGradient>
</defs>
</svg>
